<?xml version="1.0" encoding="UTF-8"?> <svg xmlns="http://www.w3.org/2000/svg" width="657" height="405" viewBox="0 0 657 405" fill="none"> <path d="M650.496 243.066C650.532 242.792 650.34 242.541 650.066 242.505L645.605 241.916C645.331 241.88 645.08 242.072 645.043 242.346C645.007 242.62 645.2 242.871 645.474 242.907L649.439 243.431L648.916 247.396C648.88 247.67 649.072 247.921 649.346 247.957C649.62 247.994 649.871 247.801 649.907 247.527L650.496 243.066ZM64.0009 13.5005C133.728 13.435 180.061 46.9316 216.643 92.4867C234.94 115.272 250.791 141.066 265.905 167.184C281.012 193.289 295.392 219.734 310.722 243.761C341.378 291.812 375.95 330.394 428.114 337.561C480.252 344.724 549.785 320.475 650.305 243.397L649.696 242.604C549.221 319.647 479.97 343.676 428.25 336.57C376.556 329.468 342.197 291.237 311.565 243.224C296.25 219.22 281.897 192.821 266.771 166.683C251.651 140.556 235.769 114.707 217.423 91.8606C180.718 46.1526 134.124 12.4347 64 12.5005L64.0009 13.5005Z" fill="#9D9D9D"></path> </svg> 