<svg width="24" height="40" viewBox="0 0 24 40" xmlns="http://www.w3.org/2000/svg">
    <path d="M19.6364 12.9688C19.6364 8.43367 16.2097 4.6875 12 4.6875C7.79571 4.6875 4.36363 8.42844 4.36363 12.9688C4.36363 17.492 7.78931 21.1719 12 21.1719C16.2107 21.1719 19.6364 17.492 19.6364 12.9688ZM6.54545 12.9688C6.54545 9.69477 8.99236 7.03125 12 7.03125C15.0076 7.03125 17.4545 9.69477 17.4545 12.9688C17.4545 16.1996 15.0076 18.8281 12 18.8281C8.99236 18.8281 6.54545 16.1996 6.54545 12.9688Z" fill="#D1DAE2"/>
    <path d="M24 12.9688C24 5.85844 18.6268 0 12 0C5.74436 0 0 5.36859 0 12.9688C0 17.7073 4.31898 24.868 6.88335 28.8027C4.03265 29.4182 0 31.0075 0 34.1406C0 38.6211 7.7688 40 12 40C16.2316 40 24 38.621 24 34.1406C24 31.0073 19.967 29.4181 17.1167 28.8027C19.6679 24.8883 24 17.7128 24 12.9688ZM2.18182 12.9688C2.18182 6.40602 7.27818 2.34375 12 2.34375C17.4137 2.34375 21.8182 7.11008 21.8182 12.9688C21.8182 17.9316 15.3628 27.7142 11.9999 32.277C8.6368 27.7152 2.18182 17.9346 2.18182 12.9688ZM21.8182 34.1406C21.8182 36.0985 16.4756 37.6562 12 37.6562C7.5304 37.6562 2.18182 36.0973 2.18182 34.1406C2.18182 33.2079 4.13062 31.5909 8.29673 30.9155C9.88785 33.2348 11.0855 34.7916 11.1601 34.8884C11.3673 35.157 11.6752 35.3125 12 35.3125C12.3248 35.3125 12.6327 35.157 12.8399 34.8884C12.9145 34.7916 14.1121 33.2348 15.7033 30.9155C19.8694 31.5909 21.8182 33.2079 21.8182 34.1406Z" fill="#D1DAE2"/>
</svg>
