<svg width="30" height="30" viewBox="0 0 30 30" xmlns="http://www.w3.org/2000/svg">
<path d="M29.5 10.0016H25.205L16.855 0.172982C16.6589 -0.0576607 16.3411 -0.0576607 16.145 0.172982C15.9489 0.403625 15.9489 0.777565 16.145 1.00821L23.795 10.0016H6.205L13.855 1.00821C14.0511 0.777565 14.0511 0.403625 13.855 0.172982C13.6589 -0.0576607 13.3411 -0.0576607 13.145 0.172982L4.795 10.0016H0.5C0.223875 10.0016 0 10.2649 0 10.5898V15.2953C0 15.6201 0.223875 15.8835 0.5 15.8835H1.575L3.5 29.5059C3.53962 29.7935 3.75231 30.0037 4 30H26C26.2477 30.0037 26.4604 29.7935 26.5 29.5059L28.425 15.8835H29.5C29.7761 15.8835 30 15.6201 30 15.2953V10.5898C30 10.2649 29.7761 10.0016 29.5 10.0016ZM25.575 28.8236H4.425L2.59 15.8835H27.41L25.575 28.8236ZM29 14.7071H1V11.178H29V14.7071Z" />
<path d="M16 17.0598H14C13.7239 17.0598 13.5 17.3232 13.5 17.648V27.059C13.5 27.3838 13.7239 27.6472 14 27.6472H16C16.2761 27.6472 16.5 27.3838 16.5 27.059V17.648C16.5 17.3232 16.2761 17.0598 16 17.0598ZM15.5 26.4708H14.5V18.2362H15.5V26.4708Z" />
<path d="M11 17.0598H8.99997C8.72384 17.0598 8.49997 17.3232 8.49997 17.648V27.059C8.49997 27.3838 8.72384 27.6472 8.99997 27.6472H11C11.2761 27.6472 11.5 27.3838 11.5 27.059V17.648C11.5 17.3232 11.2761 17.0598 11 17.0598ZM10.5 26.4708H9.49997V18.2362H10.5V26.4708Z" />
<path d="M21 17.0598H19C18.7239 17.0598 18.5 17.3232 18.5 17.648V27.059C18.5 27.3838 18.7239 27.6472 19 27.6472H21C21.2762 27.6472 21.5 27.3838 21.5 27.059V17.648C21.5 17.3232 21.2762 17.0598 21 17.0598ZM20.5 26.4708H19.5V18.2362H20.5V26.4708Z" />
<path d="M5 11.7661C4.72387 11.7661 4.5 12.0295 4.5 12.3543V13.5307C4.5 13.8555 4.72387 14.1189 5 14.1189C5.27612 14.1189 5.5 13.8555 5.5 13.5307V12.3543C5.5 12.0295 5.27612 11.7661 5 11.7661Z" />
<path d="M25 11.7661C24.7239 11.7661 24.5 12.0295 24.5 12.3543V13.5307C24.5 13.8555 24.7239 14.1189 25 14.1189C25.2762 14.1189 25.5 13.8555 25.5 13.5307V12.3543C25.5 12.0295 25.2762 11.7661 25 11.7661Z" />
</svg>
