<svg width="47" height="17" viewBox="0 0 47 17" fill="none" xmlns="http://www.w3.org/2000/svg">
    <path d="M1.17595 6.44965C1.18065 6.44627 1.18544 6.44282 1.19014 6.43944C4.41112 4.01083 10.9554 0 18.6757 0C23.1237 0 27.9296 1.39827 32.5311 4.0476C34.1239 4.95243 35.6116 5.94924 36.9792 7.0281C37.5297 6.21117 38.1618 5.4241 38.8709 4.6731C41.1716 2.20773 43.5746 0.956664 45.9776 0.956664C46.5422 0.956735 47 1.28621 47 1.69267V15.3074C47 15.7139 46.5422 16.0433 45.9775 16.0433C43.5745 16.0433 41.1715 14.7923 38.8708 12.3269C38.1618 11.576 37.5296 10.7889 36.9791 9.9719C35.6115 11.0508 34.1238 12.0476 32.531 12.9524C27.9296 15.6017 23.1236 17 18.6756 17C10.9553 17 4.41113 12.9892 1.19005 10.5606C-0.391182 9.42825 -0.397446 7.58767 1.17595 6.44965ZM38.4107 8.684C39.5355 10.4503 41.8873 13.7619 44.9549 14.461V2.53897C41.8873 3.23814 39.5354 6.5498 38.3595 8.316C38.4018 8.43622 38.419 8.56018 38.4107 8.684ZM18.6756 15.5282C26.9582 15.5282 34.116 10.1191 36.0588 8.50003C34.116 6.88097 26.9582 1.47187 18.6756 1.47187C15.7681 1.52828 12.9243 2.09687 10.3929 3.1277C12.6936 4.01083 14.3298 6.1082 14.3298 8.50003C14.3298 10.8919 12.6937 12.9892 10.3929 13.8724C12.9243 14.9032 15.7681 15.4717 18.6756 15.5282ZM2.62165 9.56713C4.28322 10.7773 6.09755 11.8736 8.04116 12.842C10.393 12.7317 12.2847 10.8182 12.2847 8.50003C12.2847 6.18187 10.3929 4.2684 8.04116 4.15803C6.09755 5.12646 4.28322 6.22279 2.62165 7.43293C1.85471 8.03723 1.85471 8.96277 2.62165 9.56713Z" fill="#FFC11E"/>
    <path d="M7.78555 5.85062C9.28213 5.85062 10.4953 6.72375 10.4953 7.80085C10.4953 8.87795 9.28213 9.75108 7.78555 9.75108C6.28897 9.75108 5.07579 8.87795 5.07579 7.80085C5.07579 6.72382 6.28897 5.85062 7.78555 5.85062ZM7.78555 8.27922C8.15262 8.27922 8.45021 8.06504 8.45021 7.80085C8.45021 7.53666 8.15262 7.32248 7.78555 7.32248C7.41847 7.32248 7.12088 7.53666 7.12088 7.80085C7.12088 8.06504 7.41847 8.27922 7.78555 8.27922Z" fill="#FFC11E"/>
</svg>
