<svg width="16" height="25" viewBox="0 0 16 25" fill="none" xmlns="http://www.w3.org/2000/svg">
<path d="M9.35693 24.3745C9.35993 24.372 9.36299 24.3694 9.36599 24.3669C11.5199 22.6537 15.077 19.1726 15.077 15.0661C15.077 12.7002 13.8369 10.1438 11.4873 7.69621C10.6848 6.84898 9.80074 6.05767 8.84392 5.33022C9.56844 5.03742 10.2665 4.70115 10.9325 4.32398C13.119 3.1002 14.2286 1.82203 14.2286 0.543854C14.2285 0.243506 13.9363 0 13.5758 0L1.50114 0C1.14066 0 0.848451 0.243506 0.848451 0.543906C0.848451 1.82208 1.958 3.10025 4.14449 4.32403C4.81048 4.70115 5.50852 5.03747 6.2331 5.33027C5.27628 6.05772 4.39223 6.84904 3.58975 7.69626C1.2401 10.1438 9.53674e-07 12.7002 9.53674e-07 15.0662C9.53674e-07 19.1727 3.55714 22.6537 5.71103 24.367C6.71526 25.2081 8.34764 25.2114 9.35693 24.3745ZM7.37532 4.56878C5.80885 3.97048 2.87179 2.71953 2.25177 1.08781L12.8253 1.08781C12.2052 2.71953 9.26811 3.97053 7.7017 4.59601C7.59507 4.57352 7.48513 4.56436 7.37532 4.56878ZM1.30531 15.0662C1.30531 10.6605 6.10255 6.8532 7.53848 5.81978C8.9744 6.8532 13.7716 10.6605 13.7716 15.0662C13.7216 16.6127 13.2173 18.1254 12.3031 19.4718C11.5199 18.2481 9.65976 17.3778 7.53848 17.3778C5.4172 17.3778 3.55708 18.248 2.77384 19.4718C1.85962 18.1254 1.35541 16.6127 1.30531 15.0662ZM6.59208 23.6055C5.51883 22.7217 4.54651 21.7566 3.68763 20.7228C3.78551 19.4718 5.48254 18.4656 7.53848 18.4656C9.59442 18.4656 11.2914 19.4718 11.3893 20.7228C10.5304 21.7566 9.55813 22.7217 8.48487 23.6055C7.94893 24.0134 7.12809 24.0134 6.59208 23.6055Z" fill="#FFC11E"/>
<path d="M9.8882 20.8587C9.8882 20.0627 9.11383 19.4174 8.15857 19.4174C7.20331 19.4174 6.42894 20.0627 6.42894 20.8587C6.42894 21.6548 7.20331 22.3001 8.15857 22.3001C9.11377 22.3001 9.8882 21.6548 9.8882 20.8587ZM7.73431 20.8587C7.73431 20.6635 7.92427 20.5052 8.15857 20.5052C8.39287 20.5052 8.58282 20.6635 8.58282 20.8587C8.58282 21.054 8.39287 21.2123 8.15857 21.2123C7.92427 21.2123 7.73431 21.054 7.73431 20.8587Z" fill="#FFC11E"/>
</svg>
