<svg width="30" height="30" viewBox="0 0 30 30" xmlns="http://www.w3.org/2000/svg">
<path d="M29.9208 15.4274C27.4222 9.46372 23.3146 5.81703 18.5001 5.14125C16.0863 1.07643 8.51237 0.0466706 8.18547 0.00424903C7.97248 -0.0250477 7.7582 0.0986234 7.6276 0.329794C7.49635 0.559324 7.464 0.863619 7.54217 1.13299C8.28473 3.70298 9.04545 6.62616 9.24678 7.82209C7.87141 8.66123 6.66923 9.55356 5.89421 10.2972C4.21326 6.71155 0.781879 6.66679 0.625023 6.66679C0.279552 6.66679 0 7.03952 0 7.50014C0 12.3284 1.26223 14.7519 2.10634 15.8334C1.26223 16.9149 0 19.3384 0 24.1667C0 24.6273 0.279552 25 0.625023 25C0.781879 25 4.21332 24.9553 5.89421 21.3697C6.92388 22.3576 8.7042 23.6069 10.6496 24.6455C10.2197 25.5726 10.0001 27.0472 10.0001 29.1666C10.0001 29.6273 10.2796 30 10.6251 30C10.811 30 15.0611 29.9509 17.1778 26.6404C22.5608 26.5017 27.1961 22.7427 29.9208 16.2395C30.0264 15.9872 30.0264 15.6796 29.9208 15.4274ZM9.07657 1.82963C11.1766 2.23494 14.6244 3.23212 16.5727 5.01703C14.7762 5.11062 12.484 6.01624 10.4061 7.15264C10.1294 5.68781 9.51555 3.39931 9.07657 1.82963ZM11.2647 28.2853C11.348 25.9673 11.7491 25.3749 11.8615 25.2536C13.0795 25.8236 14.3135 26.2766 15.434 26.5039C14.0782 27.7759 12.2299 28.1717 11.2647 28.2853ZM11.789 25.223L11.7892 25.2207C11.7909 25.2215 11.7927 25.2221 11.7943 25.223C11.7908 25.2224 11.7928 25.2237 11.789 25.223ZM16.8751 25C13.2227 25 7.25101 21.0019 6.14505 19.493C6.02663 19.3311 5.86491 19.2424 5.69827 19.2424C5.66042 19.2424 5.62198 19.2473 5.58413 19.2562C5.37964 19.3067 5.2069 19.4906 5.12452 19.7453C4.281 22.3535 2.29735 23.0656 1.26645 23.2601C1.46175 18.038 3.31543 16.6423 3.41064 16.5748C3.61631 16.434 3.74328 16.1499 3.74633 15.8416C3.74937 15.5299 3.61812 15.2394 3.41123 15.0929C3.32761 15.0335 1.46298 13.6476 1.26645 8.41162C2.29671 8.61263 4.28768 9.33528 5.12452 11.9215C5.2069 12.1762 5.37964 12.3602 5.58413 12.4106C5.79044 12.4618 5.99979 12.3723 6.14505 12.1738C7.25101 10.665 13.2227 6.66679 16.8751 6.66679C21.8098 6.66679 26.0841 10.0009 28.6549 15.8334C26.0841 21.6659 21.8098 25 16.8751 25Z" />
<path d="M18.7501 15.8334C18.7501 11.9988 19.8848 9.65011 19.8964 9.62652C20.0856 9.24238 20.0062 8.72645 19.7193 8.47254C19.4325 8.22028 19.0455 8.32364 18.8551 8.70449C18.7995 8.8152 17.5001 11.4649 17.5001 15.8334C17.5001 20.2018 18.7995 22.8515 18.8551 22.9622C18.9753 23.2031 19.1737 23.3333 19.3757 23.3333C19.4947 23.3333 19.6149 23.2878 19.7217 23.1933C20.0092 22.9378 20.0867 22.421 19.8951 22.0377C19.8835 22.015 18.7501 19.703 18.7501 15.8334Z" />
<path d="M17.2193 8.47263C16.9318 8.22037 16.5461 8.32373 16.355 8.70459C16.2995 8.81521 15.0001 11.465 15.0001 15.8334C15.0001 18.1666 15.3772 20 15.694 21.1271C15.788 21.4615 16.0261 21.6683 16.2794 21.6683C16.3521 21.6683 16.4265 21.6511 16.4985 21.6154C16.822 21.4542 16.9856 20.9741 16.8648 20.5428C16.5846 19.5443 16.2501 17.9166 16.2501 15.8334C16.2501 11.9988 17.3848 9.65013 17.3964 9.62653C17.5855 9.24247 17.5062 8.72654 17.2193 8.47263Z" />
<path d="M22.5 14.9999C23.1904 14.9999 23.75 14.2538 23.75 13.3333C23.75 12.4129 23.1904 11.6667 22.5 11.6667C21.8097 11.6667 21.2501 12.4129 21.2501 13.3333C21.2501 14.2538 21.8097 14.9999 22.5 14.9999Z" />
</svg>
