<svg width="30" height="30" viewBox="0 0 30 30" fill="none" xmlns="http://www.w3.org/2000/svg">
<path d="M15 0C6.71575 0 0 6.71575 0 15C0 23.2843 6.71575 30 15 30C23.2804 29.9906 29.9906 23.2804 30 15C30 6.71575 23.2843 0 15 0ZM15 29C7.268 29 1 22.732 1 15C1 7.268 7.268 1 15 1C22.7283 1.00881 28.9912 7.27169 29 15C29 22.732 22.732 29 15 29Z" fill="#FFC11E"/>
<path d="M21 14.5H9C8.72388 14.5 8.5 14.7239 8.5 15C8.5 15.2761 8.72388 15.5 9 15.5H21C21.2761 15.5 21.5 15.2761 21.5 15C21.5 14.7239 21.2761 14.5 21 14.5Z" fill="#FFC11E"/>
<path d="M21 19.5H9C8.72388 19.5 8.5 19.7239 8.5 20C8.5 20.2761 8.72388 20.5 9 20.5H21C21.2761 20.5 21.5 20.2761 21.5 20C21.5 19.7239 21.2761 19.5 21 19.5Z" fill="#FFC11E"/>
<path d="M21 9.5H9C8.72388 9.5 8.5 9.72387 8.5 10C8.5 10.2761 8.72388 10.5 9 10.5H21C21.2761 10.5 21.5 10.2761 21.5 10C21.5 9.72387 21.2761 9.5 21 9.5Z" fill="#FFC11E"/>
</svg>
