<svg width="30" height="30" viewBox="0 0 30 30" fill="none" xmlns="http://www.w3.org/2000/svg">
<circle cx="15" cy="15" r="15" fill="#D1DAE2"/>
<path d="M23.0556 12.2231H20.6694L16.0306 6.76277C15.9216 6.63464 15.745 6.63464 15.6361 6.76277C15.5272 6.89091 15.5272 7.09865 15.6361 7.22679L19.8861 12.2231H10.1139L14.3639 7.22679C14.4728 7.09865 14.4728 6.89091 14.3639 6.76277C14.255 6.63464 14.0784 6.63464 13.9694 6.76277L9.33056 12.2231H6.94445C6.79105 12.2231 6.66667 12.3694 6.66667 12.5499V15.164C6.66667 15.3445 6.79105 15.4908 6.94445 15.4908H7.54167L8.61112 23.0588C8.63313 23.2186 8.75129 23.3354 8.88889 23.3333H21.1111C21.2487 23.3354 21.3669 23.2186 21.3889 23.0588L22.4583 15.4908H23.0556C23.209 15.4908 23.3333 15.3445 23.3333 15.164V12.5499C23.3333 12.3694 23.209 12.2231 23.0556 12.2231ZM20.875 22.6798H9.12501L8.10556 15.4908H21.8944L20.875 22.6798ZM22.7778 14.8373H7.22223V12.8767H22.7778V14.8373Z" fill="white"/>
<path d="M15.5556 16.1444H14.4444C14.291 16.1444 14.1667 16.2907 14.1667 16.4712V21.6995C14.1667 21.8799 14.291 22.0263 14.4444 22.0263H15.5556C15.709 22.0263 15.8333 21.8799 15.8333 21.6995V16.4712C15.8333 16.2907 15.709 16.1444 15.5556 16.1444ZM15.2778 21.3727H14.7222V16.7979H15.2778V21.3727Z" fill="white"/>
<path d="M12.7777 16.1444H11.6666C11.5132 16.1444 11.3889 16.2907 11.3889 16.4712V21.6995C11.3889 21.8799 11.5132 22.0263 11.6666 22.0263H12.7777C12.9311 22.0263 13.0555 21.8799 13.0555 21.6995V16.4712C13.0555 16.2907 12.9311 16.1444 12.7777 16.1444ZM12.5 21.3727H11.9444V16.7979H12.5V21.3727Z" fill="white"/>
<path d="M18.3334 16.1444H17.2223C17.0689 16.1444 16.9445 16.2907 16.9445 16.4712V21.6995C16.9445 21.8799 17.0689 22.0263 17.2223 22.0263H18.3334C18.4868 22.0263 18.6112 21.8799 18.6112 21.6995V16.4712C18.6112 16.2907 18.4868 16.1444 18.3334 16.1444ZM18.0556 21.3727H17.5V16.7979H18.0556V21.3727Z" fill="white"/>
<path d="M9.44443 13.2034C9.29103 13.2034 9.16666 13.3497 9.16666 13.5302V14.1837C9.16666 14.3642 9.29103 14.5105 9.44443 14.5105C9.59784 14.5105 9.72221 14.3642 9.72221 14.1837V13.5302C9.72221 13.3497 9.59784 13.2034 9.44443 13.2034Z" fill="white"/>
<path d="M20.5556 13.2034C20.4022 13.2034 20.2778 13.3497 20.2778 13.5302V14.1837C20.2778 14.3642 20.4022 14.5105 20.5556 14.5105C20.709 14.5105 20.8334 14.3642 20.8334 14.1837V13.5302C20.8334 13.3497 20.709 13.2034 20.5556 13.2034Z" fill="white"/>
</svg>
