<svg width="30" height="30" viewBox="0 0 30 30" xmlns="http://www.w3.org/2000/svg">
<path d="M11.0297 23.8622C8.69164 23.0881 6.65597 21.6383 5.19814 19.7091C5.09055 19.5629 4.91016 19.4836 4.72547 19.5014C4.54078 19.5191 4.38009 19.6311 4.30432 19.795C4.22861 19.9588 4.24952 20.1493 4.35911 20.2941C5.94248 22.3907 8.15393 23.9664 10.6943 24.808C10.9643 24.8968 11.2577 24.7577 11.3502 24.4968C11.4428 24.236 11.2994 23.9521 11.0297 23.8622Z" />
<path d="M3.66916 16.8436C3.57799 16.5819 3.28462 16.4412 3.01392 16.5292C2.74315 16.6174 2.59762 16.901 2.68872 17.1626C2.81098 17.5132 2.95288 17.8636 3.11047 18.2039C3.22728 18.4559 3.53332 18.5687 3.79402 18.4557C4.05472 18.3428 4.17134 18.047 4.05454 17.795C3.9104 17.484 3.78081 17.1639 3.66916 16.8436Z" />
<path d="M17.3155 6.24985C17.3159 7.04034 17.6435 7.79784 18.2252 8.35336C18.4275 8.54649 18.7532 8.54555 18.9543 8.35114C19.1554 8.15672 19.1564 7.84196 18.9566 7.64631C18.5686 7.27846 18.35 6.7752 18.35 6.24985C18.35 5.7245 18.5686 5.22124 18.9566 4.85338C20.202 3.64952 19.6196 1.78723 18.4394 0.646353C18.2371 0.453228 17.9114 0.454165 17.7103 0.648579C17.5092 0.842935 17.5082 1.15776 17.708 1.3534C18.5336 2.15151 18.9955 3.40172 18.2252 4.14639C17.6434 4.70186 17.3159 5.45936 17.3155 6.24985Z" />
<path d="M11.6258 8.74985C11.6262 9.54034 11.9538 10.2978 12.5355 10.8534C12.7378 11.0465 13.0635 11.0456 13.2646 10.8511C13.4657 10.6568 13.4667 10.342 13.2669 10.1463C12.8789 9.77846 12.6603 9.2752 12.6603 8.74985C12.6603 8.2245 12.8789 7.72124 13.2669 7.35338C14.5123 6.14952 13.9299 4.28723 12.7497 3.14635C12.5474 2.95323 12.2217 2.95416 12.0206 3.14858C11.8195 3.34299 11.8185 3.65776 12.0183 3.8534C12.8439 4.65151 13.3058 5.90172 12.5355 6.64639C11.9538 7.20186 11.6262 7.95936 11.6258 8.74985Z" />
<path d="M6.20691 5.74985C6.20727 6.54034 6.53489 7.29784 7.11661 7.85337C7.24699 7.98098 7.43811 8.03132 7.6174 7.98526C7.7967 7.93921 7.93678 7.8038 7.98442 7.63048C8.03207 7.45716 7.98 7.27241 7.84798 7.14637C7.45999 6.77852 7.24135 6.27526 7.24135 5.74991C7.24135 5.22456 7.45999 4.7213 7.84798 4.35345C9.09336 3.14958 8.51098 1.28729 7.33076 0.146414C7.12843 -0.0467114 6.80275 -0.045774 6.60163 0.14864C6.40057 0.342996 6.39954 0.65782 6.59933 0.853464C7.42495 1.65157 7.88689 2.90178 7.11655 3.64645C6.53489 4.20186 6.20727 4.95936 6.20691 5.74985Z" />
<path d="M24.3828 12.3575C24.4839 10.2214 24.7263 7.34719 25.308 5.94199C26.0219 4.21594 28.1848 2.9618 29.0817 2.50277C29.7294 2.1668 29.9896 1.39805 29.6727 0.756972C29.3557 0.115839 28.5735 -0.171329 27.8962 0.104882C25.8657 0.905566 24.1136 2.24947 22.8455 3.97887C21.5231 5.89623 21.0121 9.55195 20.8145 12.1284C18.9611 12.0445 17.011 11.9999 15 11.9999C11.5628 11.9794 8.12674 12.1268 4.70494 12.4416C0.363201 12.8908 0 13.4577 0 13.9999C0 14.0115 0.00139415 14.0232 0.00175783 14.0348L0.00121231 14.0348L0.00284892 14.0566C0.00381875 14.0749 0.00466732 14.0932 0.00691005 14.1117C0.0156991 14.2294 0.0333379 14.4592 0.0481883 14.6208C0.383749 18.2976 2.22933 21.6911 5.1724 24.0427V27C5.1724 28.9695 10.1163 30 15 30C19.8837 30 24.8275 28.9695 24.8275 27V24.3079C27.9592 21.9336 29.8481 18.3449 29.9896 14.5C29.9896 14.4586 29.9947 14.2335 29.9976 14.104C29.9998 14.0683 30 14.0336 30 14C30 13.5627 29.9984 12.8395 24.3828 12.3575ZM28.5809 13.9991C27.184 14.3505 25.7545 14.5671 24.3134 14.6456C24.317 14.3569 24.325 13.9092 24.3429 13.3579C25.7742 13.4343 27.1939 13.6491 28.5809 13.9991ZM21.8164 12.6763L21.8166 12.6756L21.8165 12.675C21.9805 10.1943 22.4366 6.37435 23.7062 4.53357C24.8615 2.96684 26.4542 1.75037 28.2983 1.02627C28.4654 0.958476 28.6581 1.02855 28.7376 1.186C28.8171 1.34344 28.7556 1.5334 28.5976 1.61906C27.3582 2.25334 25.1584 3.61025 24.3472 5.57051C23.3958 7.87014 23.2892 13.4187 23.2774 14.7268C22.7813 14.7635 22.2642 14.7965 21.7259 14.8258C21.7306 14.4925 21.7488 13.6998 21.8164 12.6763ZM15 12.9998C16.989 12.9998 18.9171 13.0439 20.7492 13.1265C20.7033 13.9751 20.6926 14.6095 20.6903 14.8732C18.837 14.9541 16.9299 14.9998 15 14.9998C7.72977 14.9998 2.8476 14.4679 1.3797 13.9998C2.8476 13.5319 7.72983 12.9998 15 12.9998ZM23.7931 26.9999C23.7931 27.6786 20.6894 28.9999 15 28.9999C9.31053 28.9999 6.20684 27.6786 6.20684 26.9999V24.8116C8.78131 26.5622 11.8524 27.5011 15 27.4999C18.1177 27.5289 21.1755 26.6712 23.7931 25.0337V26.9999ZM24.0344 23.6327C23.9972 23.6538 23.963 23.6793 23.9325 23.7086C21.3498 25.5562 18.2128 26.5364 15 26.4998C7.91495 26.4998 1.90899 21.463 1.12561 14.9549C2.29637 15.2646 3.49484 15.4666 4.705 15.5582C8.1268 15.8729 11.5629 16.0203 15.0001 15.9998C17.1209 15.9998 19.2229 15.9507 21.2484 15.8541C22.1697 15.8091 23.0458 15.7532 23.851 15.6881C25.5642 15.6108 27.2646 15.3621 28.9248 14.9458C28.6558 18.3846 26.8755 21.5471 24.0344 23.6327Z" />
</svg>
